<svg width="202" height="54" viewBox="0 0 202 54" fill="none" xmlns="http://www.w3.org/2000/svg">
    <path d="M49.11 6.33c.067-1.867.14-3.764.212-5.692H45.48c.08 1.934.146 3.461.213 5.316.066 1.861.097 4.128.097 6.068v1.54l-4.098.084c-1.322.03-.37.043-1.764.043-1.394 0-6.037 0-7.395-.043l-4.098-.085v-1.527c0-1.94.03-4.2.097-6.068.067-1.867.14-3.388.212-5.316H24.9c.08 1.934.152 3.831.219 5.692.066 1.861.097 3.758.097 5.692v7.547c0 1.94-.03 3.843-.097 5.716-.067 1.873-.14 3.721-.219 5.546h3.843a489.768 489.768 0 0 1-.212-5.546 161.622 161.622 0 0 1-.097-5.716v-3.583c1.413-.03 2.776.346 4.098.334 1.321-.012 5.983-.025 7.395-.025s.449 0 1.764.025c1.315.024 2.685-.37 4.098-.334v3.583c0 1.94-.03 3.843-.097 5.716-.067 1.873-.14 3.721-.212 5.546h3.843a690.482 690.482 0 0 1-.213-5.546 161.864 161.864 0 0 1-.097-5.716v-7.547c0-1.94.03-3.837.097-5.692M54.68 25.218c-.066 1.873-.139 3.746-.211 5.619 1.176-.06 2.733-.11 3.897-.152a171.08 171.08 0 0 1 4.674-.066c1.176 0 4.28.024 5.431.066a236.3 236.3 0 0 1 3.492.152v-3.752l-5.601 1.479c-.77.06-2.831.109-3.746.157-.916.049-2.789.067-4.068.067-.024-.94-.06-1.83-.097-2.685v-9.384c0-.309.024-.594.024-.854h.74c.8 0 2.085.03 2.988.042l6.19.703v-3.406l-5.014.666c-.764.043-1.594.08-2.51.11-.914.03-1.218.042-2.37.042 0-.552-.005-1.376-.024-2.461a151.271 151.271 0 0 1 0-3.328c0-1.079.019-2.049.061-2.903.042-.849.073-1.74.097-2.68 1.285 0 1.606.025 2.516.061.909.036 2.958.097 3.746.158l5.6 1.479V.57c-1.175.06-2.34.11-3.49.158-1.153.042-4.256.06-5.432.06-1.176 0-1.958-.024-3.122-.06S55.711.632 54.535.57c.08 1.873.152 3.752.219 5.625.066 1.873.103 3.777.097 5.71v7.565l-.164 5.747h-.006zM9.717 2.79c.078 3.019.115 6.146.115 9.19v7.57c0 1.934-.03 3.837-.097 5.716-.067 1.88-.14 3.728-.219 5.547h3.844a697.99 697.99 0 0 1-.219-5.547c-.066-1.879-.097-3.782-.097-5.716v-7.559c0-3.043.043-6.17.121-9.189h.23l8.026 1.37V.614c-1.727.06-4.127.109-5.77.151-1.51.043-2.661.06-4.2.067C9.91.838 8.752.808 7.23.765 5.601.723 1.733.675.006.614V4.19l9.486-1.37.23-.03h-.005zM88.48 6.427c.067-1.86.14-3.758.218-5.686h-3.842c.078 1.934.145 3.831.212 5.686.066 1.86.097 3.758.097 5.692v7.559c0 1.933-.03 3.837-.097 5.716-.067 1.873-.14 3.722-.212 5.546h3.843a698.149 698.149 0 0 1-.219-5.546c-.066-1.88-.097-3.783-.097-5.716v-7.56c0-1.933.03-3.83.097-5.691zM179.835 9.021a13.988 13.988 0 0 0-3.455-4.855 12.405 12.405 0 0 0-4.625-2.619 16.85 16.85 0 0 0-4.843-.77h-10.863l.685 11.293V19.6s-.776 10.995-.685 11.286h10.869a16.647 16.647 0 0 0 4.843-.77 12.313 12.313 0 0 0 4.619-2.624 13.987 13.987 0 0 0 3.455-4.856c.837-1.848 1.267-4.14 1.328-6.795v-.024c-.055-2.655-.485-4.934-1.322-6.795h-.006zm-2.4 7.026c-.049 2.503-.419 4.564-1.11 6.188a11.005 11.005 0 0 1-2.849 4.128 9.418 9.418 0 0 1-3.946 2.055c-1.442.358-2.921.54-4.406.546-1.013 0-2.001-.037-2.958-.103a13.82 13.82 0 0 1-2.286-.316 158.688 158.688 0 0 1-.242-8.892v-7.262c0-3.018.079-5.976.242-8.868a14.507 14.507 0 0 1 2.286-.315 42.71 42.71 0 0 1 2.958-.103c1.485 0 2.964.182 4.406.546a9.488 9.488 0 0 1 3.946 2.054 11.005 11.005 0 0 1 2.849 4.128c.679 1.619 1.049 3.686 1.11 6.19v.024zM196.395 28.503c-.77.06-2.825.109-3.746.157-.922.049-2.789.061-4.068.061-.024-.94-.06-1.83-.097-2.68v-8.207c0-.472.006-.86.025-1.163 0-.31.018-.594.018-.855.467 0-.061 0 .739.024l2.989.043 6.195.703V13.16l-5.038.66c-.757.043-1.594.08-2.509.11-.915.03-1.218.042-2.37.042 0-.557-.006-1.382-.018-2.46-.012-1.08-.018-2.189-.025-3.329 0-1.085.025-2.048.061-2.897.036-.849.073-1.746.097-2.685 1.279 0 1.6.024 2.516.066.915.043 2.958.097 3.746.158l5.601 1.48V.515c-1.176.061-2.34.11-3.492.152-1.152.043-4.255.067-5.431.067a76.17 76.17 0 0 1-3.122-.067c-1.164-.042-2.721-.09-3.897-.151.078 1.873.145 3.746.212 5.619.066 1.873.097 3.776.091 5.698v7.558l-.158 5.747c-.067 1.873-.133 3.752-.212 5.625 1.176-.06 2.734-.11 3.898-.158 1.163-.048 3.497-.06 4.673-.06 1.176 0 4.28.024 5.431.06 1.152.037 2.316.097 3.492.158V27.03l-5.601 1.467v.006zM150.454 6.427c.067-1.86.14-3.758.212-5.686h-3.843c.079 1.934.146 3.831.212 5.686.067 1.86.097 3.758.097 5.692v7.559c0 1.933-.03 3.837-.097 5.716-.066 1.879-.139 3.722-.212 5.546h3.843a706.43 706.43 0 0 1-.212-5.546c-.067-1.88-.097-3.783-.097-5.716v-7.56c0-1.933.03-3.83.097-5.691zM118.625 6.542c.067-1.86.133-3.758.212-5.692h-3.843c.079 1.934.145 3.831.212 5.692.067 1.861.097 3.758.097 5.692v7.559c0 1.248 0 2.479-.042 3.697L96.306.771h-4.025l2.085 2.48c.043 1.085.08 2.158.122 3.212.066 1.861.097 3.759.097 5.686v7.559c0 1.94-.03 3.843-.097 5.716-.067 1.873-.14 3.722-.213 5.546h3.843a489.698 489.698 0 0 1-.212-5.546 161.617 161.617 0 0 1-.097-5.716v-7.565c0-1.606.03-3.176.073-4.734l19.7 23.543h1.267a482.819 482.819 0 0 1-.212-5.455 175.58 175.58 0 0 1-.097-5.71v-7.56c0-1.933.03-3.83.097-5.69M143.017 23.418c.17-1.546.097-3.48-.812-5.213-1.849-3.51-7.674-4.886-10.141-5.71a8.093 8.093 0 0 1-3.365-2.134c-.697-.788-1.048-1.873-1.048-3.255a5.679 5.679 0 0 1 .424-2.194 4.931 4.931 0 0 1 1.2-1.74 5.534 5.534 0 0 1 1.825-1.11 6.286 6.286 0 0 1 2.291-.393 4.973 4.973 0 0 1 2.134.418c.563.26 1.085.606 1.533 1.03a5.26 5.26 0 0 1 1.025 1.34c.23.43.43.879.6 1.34h.921l.812-3.698a9.218 9.218 0 0 0-2.891-1.564 13.634 13.634 0 0 0-7.698.11 9.05 9.05 0 0 0-3.043 1.715 7.369 7.369 0 0 0-1.94 2.612 8.327 8.327 0 0 0-.667 3.364c0 1.728.71 2.807 1.407 3.831.697 1.025 2.194 2.091 3.231 2.746 0 0 2.824 1.419 5.655 2.546 1.94.77 3.582 1.964 4.522 3.346 1.764 2.613.23 5.686.23 5.686a5.72 5.72 0 0 1-3.273 2.655 6.712 6.712 0 0 1-2.649.503c-7.807 0-9.608-8.965-9.608-8.965h-.921l-1.57 3.91s3.649 6.77 11.044 6.77c.934 0 1.861-.072 2.777-.236 0 0 .212-.037.575-.127l.243-.055a.407.407 0 0 0 .109-.042c2-.564 6.589-2.419 7.05-7.498M90.08 42.16a1.88 1.88 0 0 1 .28-.685.179.179 0 0 0-.037-.242.159.159 0 0 0-.103-.03h-1.346a.175.175 0 0 0-.176.17c0 .036.013.072.03.102.14.206.237.437.28.685.06.358.09.722.084 1.085v1.589a.345.345 0 0 1-.345.345H84.2a.35.35 0 0 1-.346-.346v-1.588a5.425 5.425 0 0 1 .085-1.085 1.88 1.88 0 0 1 .279-.685.179.179 0 0 0-.036-.242.159.159 0 0 0-.104-.03h-1.345c-.097.006-.164.09-.158.188 0 .03.012.06.03.084.14.206.237.443.285.685.061.358.091.722.08 1.085v4.862c.005.364-.019.733-.086 1.09-.042.25-.139.48-.278.692a.174.174 0 0 0 .042.242c.03.019.067.03.097.03h1.346a.176.176 0 0 0 .175-.175.167.167 0 0 0-.03-.097 1.769 1.769 0 0 1-.279-.691 6.025 6.025 0 0 1-.085-1.091v-1.794c0-.188.152-.346.346-.346h4.552a.35.35 0 0 1 .346.346v1.8c.006.364-.019.733-.085 1.09-.043.25-.14.48-.279.692a.174.174 0 0 0 .042.242c.03.019.067.03.097.03h1.346a.176.176 0 0 0 .176-.175.169.169 0 0 0-.03-.097 1.768 1.768 0 0 1-.28-.691 6.016 6.016 0 0 1-.084-1.091v-4.861a5.427 5.427 0 0 1 .085-1.086M99.688 49.877a3.338 3.338 0 0 1-.449-.673 16.723 16.723 0 0 1-.448-.97v-.012l-.037-.085a1.627 1.627 0 0 0-.048-.109l-2.728-6.734a.17.17 0 0 0-.157-.11h-.4a.178.178 0 0 0-.164.11l-2.667 6.734v.018c-.006.03-.019.055-.025.08l-.036.084v.012c-.127.327-.273.643-.43.952a3.334 3.334 0 0 1-.449.673.188.188 0 0 0-.03.188c.03.06.09.103.157.103h1.213a.176.176 0 0 0 .175-.176c0-.025 0-.043-.012-.067a1.28 1.28 0 0 1-.066-.691 5.37 5.37 0 0 1 .32-1.049l.759-1.909a.347.347 0 0 1 .32-.224h2.244c.145 0 .272.09.321.224l.764 1.903c.145.34.26.697.333 1.061.043.23.018.473-.067.691a.174.174 0 0 0 .013.164.17.17 0 0 0 .145.079h1.328a.174.174 0 0 0 .157-.103.174.174 0 0 0-.036-.164zm-5.128-4.613 1.03-2.607 1.055 2.607H94.56zM106.755 41.203h-1.175a.17.17 0 0 0-.146.079.196.196 0 0 0-.018.163c.079.225.097.473.042.703-.079.37-.194.734-.345 1.085l-2.219 5.492-2.091-5.51a5.287 5.287 0 0 1-.321-1.097c-.043-.224 0-.46.103-.66a.183.183 0 0 0 0-.176.174.174 0 0 0-.152-.085h-1.364a.174.174 0 0 0-.157.103.188.188 0 0 0 .03.188c.188.212.346.448.46.709.134.273.304.673.498 1.17l2.552 6.68c.024.066.091.109.163.115h.431a.176.176 0 0 0 .163-.11l2.692-6.715c.145-.388.315-.77.503-1.14.127-.255.285-.491.467-.703a.168.168 0 0 0 .03-.188.18.18 0 0 0-.158-.103M114.296 48.689a.165.165 0 0 0-.194.066 1.338 1.338 0 0 1-.594.491 3.05 3.05 0 0 1-1.042.14h-2.643a.35.35 0 0 1-.346-.346v-2.667c0-.188.152-.345.346-.345h1.885c.327-.012.655.018.976.084.194.049.37.146.521.28a.189.189 0 0 0 .188.03.18.18 0 0 0 .103-.158v-1.26a.173.173 0 0 0-.103-.158.18.18 0 0 0-.188.03c-.151.133-.327.23-.521.285a3.78 3.78 0 0 1-.976.09h-1.885a.35.35 0 0 1-.346-.345v-2.57a.35.35 0 0 1 .346-.345h2.412c.37-.013.746.024 1.11.115.23.066.442.194.612.363a.159.159 0 0 0 .188.043.188.188 0 0 0 .115-.164v-.97c0-.097-.079-.17-.176-.175h-5.722a.175.175 0 0 0-.176.17c0 .036.012.072.031.102.139.2.23.43.272.673.061.364.085.734.079 1.103v4.922c.006.364-.018.728-.073 1.085a1.276 1.276 0 0 1-.272.613.177.177 0 0 0 .012.242c.03.03.072.043.115.043h5.892c.097 0 .169-.08.176-.176v-1.14a.164.164 0 0 0-.122-.163M123.528 41.203h-1.249a.174.174 0 0 0-.157.097.164.164 0 0 0 .018.181c.139.2.23.43.273.673.06.364.084.74.078 1.11v5.34l-5.303-7.329a.18.18 0 0 0-.14-.072h-.77a.174.174 0 0 0-.157.097.164.164 0 0 0 .018.181l.261.352v6.286c.006.37-.019.74-.079 1.103a1.694 1.694 0 0 1-.273.673.175.175 0 0 0 .042.242c.031.019.067.03.097.03h1.255a.172.172 0 0 0 .17-.181.184.184 0 0 0-.03-.097 1.754 1.754 0 0 1-.279-.691 5.99 5.99 0 0 1-.085-1.091v-5.28l5.249 7.268c.03.042.085.073.14.073h.521a.176.176 0 0 0 .176-.176v-6.734c-.006-.37.018-.74.085-1.098a1.69 1.69 0 0 1 .278-.672.166.166 0 0 0 .019-.182.176.176 0 0 0-.158-.097M131.02 48.562a.176.176 0 0 0-.194.085c-.127.26-.345.466-.606.581-.376.122-.77.176-1.158.158h-2.073a.349.349 0 0 1-.345-.346v-5.788c-.006-.37.018-.74.072-1.104.043-.242.14-.472.291-.672a.166.166 0 0 0 .019-.182.176.176 0 0 0-.158-.097h-1.346a.17.17 0 0 0-.169.176c0 .036.012.078.036.109.145.2.248.43.285.672.054.364.079.734.073 1.104v4.958c.006.346-.019.685-.079 1.024-.043.237-.14.461-.279.655a.168.168 0 0 0 .03.243.17.17 0 0 0 .109.036h5.456a.176.176 0 0 0 .176-.176v-1.267a.175.175 0 0 0-.134-.17M137.998 41.324a.173.173 0 0 0-.164-.109h-1.279a.18.18 0 0 0-.139.067c-.031.042-.043.097-.031.151.043.23.012.467-.085.673a6.308 6.308 0 0 1-.545.994l-1.691 2.546-1.631-2.546c-.2-.303-.37-.63-.497-.976a.985.985 0 0 1-.024-.673.161.161 0 0 0-.018-.163.172.172 0 0 0-.146-.079h-1.436a.171.171 0 0 0-.176.17c0 .048.018.097.054.127.219.218.412.46.594.71.188.26.419.6.673 1.005l2.091 3.292v2.006a3.6 3.6 0 0 1-.072.885c-.055.176-.152.34-.279.473a.18.18 0 0 0-.037.188c.031.06.091.103.158.103h1.346a.173.173 0 0 0 .157-.103.155.155 0 0 0-.036-.188 1.136 1.136 0 0 1-.273-.473 3.602 3.602 0 0 1-.073-.879v-2.079l2.116-3.164c.285-.43.527-.782.727-1.036.194-.261.413-.504.643-.728a.17.17 0 0 0 .042-.188M77.321 46.076c.085-.29.23-.564.43-.794a.895.895 0 0 1 .625-.206v-.449h-2.334v.449c.328 0 .546.085.655.248a.772.772 0 0 1 .018.692l-1.188 3.54-1.273-3.559c-.121-.333-.14-.576-.06-.727.078-.152.266-.224.551-.224l.018-.43H72.23v.448a.897.897 0 0 1 .661.242c.194.212.34.467.424.74l1.746 4.813a1.846 1.846 0 0 1-.733.951c-.26.146-.546.225-.843.225a2.43 2.43 0 0 1-.757-.122l.266 1.243a2.19 2.19 0 0 0 1.122-.285c.29-.176.551-.406.763-.673.207-.26.376-.551.51-.86.127-.31.242-.6.345-.867l1.588-4.401v.006zM71.884 46.18a2.705 2.705 0 0 0-.576-.934 2.397 2.397 0 0 0-.849-.576 2.708 2.708 0 0 0-1.049-.194 1.995 1.995 0 0 0-1.036.273 3.7 3.7 0 0 0-.721.545v-3.8l-1.637.43v.321a.73.73 0 0 1 .527.182c.146.127.225.449.225.988v5.613a.915.915 0 0 1-.176.619.753.753 0 0 1-.588.187v.413h1.649v-1.013c.212.328.497.594.836.782.376.206.8.315 1.23.303a2.19 2.19 0 0 0 1.63-.715c.238-.26.425-.564.547-.897a3.906 3.906 0 0 0 0-2.522h-.006l-.006-.006zm-.897 2.09a2.153 2.153 0 0 1-.322.673c-.14.188-.315.34-.521.449-.218.115-.46.176-.703.17a1.893 1.893 0 0 1-.988-.303 2.553 2.553 0 0 1-.449-.4 1.89 1.89 0 0 1-.345-.57v-2.292c.206-.266.466-.478.77-.624.278-.14.587-.218.897-.224.497.006.963.248 1.248.654.358.467.54 1.05.522 1.637 0 .279-.037.558-.11.83z" fill="#202020"/>
</svg>
